<?xml version="1.0" encoding="UTF-8"?>
<svg id="Layer_2" data-name="Layer 2" xmlns="http://www.w3.org/2000/svg" viewBox="0 0 6429.65 1113.75">
  <defs>
    <style>
      .cls-1 {
        fill: #d82525;
      }

      .cls-2 {
        fill: #fff;
      }
    </style>
  </defs>
  <g id="Layer_2-2" data-name="Layer 2">
    <g>
      <rect class="cls-1" x="89.3" y="232.82" width="861.14" height="861.14" rx="44.83" ry="44.83"/>
      <path class="cls-2" d="M871.01,642.36l-1.6,39.85-28.49,15.04-18.04,5.85-11.31,118.74,15.44,27.91,1.32,16.7.65,23.84-18.93,12.43-4.25,1.74-2.82,1.15-17.32,188.35h-498.55l-.35-2.9-47.69-391.82s-32.42-8.85-40.12-14.53c-7.7-5.69-8.02-48.7-8.02-48.7,0,0-8.67-11.46,32.73-23.06,13.8-3.87,39.99-7.69,68.78-11.06.9-.11,1.79-.22,2.71-.31,57-6.62,122.91-11.46,122.91-11.46l-66.94-295.94s-3.62-18.44-8.37-42.1c-1.23-6.15-2.54-12.64-3.88-19.26-7.25-35.76-15.45-75.05-17.7-81.25-4.28-11.77,2.56-22.89-59.06-28.88-61.62-6-255.68-29.96-255.68-29.11.1-1.05,2.78-49.21,2.78-49.21l4.91.32,209.05,13.6,108.69,12.83,30.81,21.83,17.97,32.09,11.36,55.5,11.2,52.28,4.12,19.26,65.34,305.2,46.64-169.07,29-46.63,27.05-11.13,12.94-1.71-18.47-24.35-.03-.04-11.95-6-17.81,2.47-25.01-15.3-6.73-15.49-7.78-17.89v-16.69s-.32-.49-.84-1.33c-.14-.23-.29-.48-.46-.74-.11-.18-.23-.36-.36-.56-2.64-4.25-7.61-12.42-8.22-14.92-.86-3.42-8.56-32.53-8.56-32.53l5.56-38.08,9.56-20.42,10.07-21.52v-5.13l-14.92-11.55,14.92-9.42-12.87-34.03-.5-1.31-4.12-10.88,43.65,32.53,9.76-7.71,34.04-26.84,25.09-19.79,28.2-10.85c-.21.19-2.18,1.86-5.07,4.64-7.39,7.15-20.78,21.68-25.72,37.31,0,0,0,.01-.01.01-.48,1.51-.88,3.02-1.17,4.55l22.12-9.88,23.31-1.56,29.65-1.98,62.59,31.93s31.63,32.39,94.61,27.68h.01c.35-.01.69-.05,1.05-.07,0,0-.37.17-1.08.44-.49.19-1.14.44-1.94.72-.01.01-.04.01-.05.01-.03.01-.06.02-.1.03-1.62.59-3.86,1.33-6.66,2.11-.04.01-.08.02-.12.03-.01,0-.02.01-.03.01-2.11.59-4.53,1.19-7.26,1.79-.02.01-.05.02-.07.02-.03,0-.06.01-.09.02-20.87,4.49-59.14,7.79-107.17-10.16.06.11.6.95,1.7,2.3,4.17,5.03,16.46,17.14,43.25,24.98,34.49,10.12,65.46,5.15,65.46,5.15,0,0-23.43,30.16-63.38,27.11,0,0,.03,1.23.06,3.32.21,11.19.86,46.92.86,47.47,0,.64,1.5,12.49,1.5,12.49l1.67,1.45,10.95,9.59,1.57,10.94,2.28,15.82-2.92,3.44-6.56,7.69-3.45,4.05-1.82,18.62-8.3,25.71-.26.82s-13.27,11.56-13.49,12.19c-.21.65-14.33,10.49-14.33,10.49l-5.56,4.28-.18.91-.84,4.17s21.01,9,34.03,29.43c2.99,4.71,5.57,10.03,7.37,15.99,9.58,31.77,57.78,182.94,57.78,182.94l12.46,24.39-10.71,10.85s2.69.51,6.8,1.47c.25.06.5.12.77.18.45.1.91.21,1.38.32,11.88,2.87,32.15,8.64,38.83,15.96,9.67,10.58,6.78,19.82,6.78,19.82Z"/>
      <g>
        <path class="cls-2" d="M1433.91,402.16c-50.66,0-73.84,27.58-73.84,61.8,0,46.26,31.98,70.61,110.31,99.26,173.19,61.8,255.93,133.49,255.93,279.06s-94.86,261.59-310.01,261.59c-177.59,0-292.4-86.06-292.4-228.53,0-58.39,17.7-98.14,40.87-121.32,4.4-5.48,8.8-7.64,13.21-7.64,7.73,0,12.13,4.4,16.53,10.96,51.92,91.58,139.06,151.23,222.87,151.23,56.32,0,90.46-19.94,90.46-61.8s-33.06-63.96-116.96-91.58c-137.89-47.43-248.2-115.88-248.2-269.22,0-142.29,100.43-255.93,290.15-255.93,105.91,0,196.37,30.9,255.93,76.09,9.97,7.73,14.37,16.62,14.37,26.5,0,33.15-37.46,109.23-70.61,150.02-4.4,5.57-9.88,8.89-16.53,8.89-5.57,0-11.05-2.25-15.45-6.65-55.16-53-116.96-82.73-166.64-82.73Z"/>
        <path class="cls-2" d="M2324.58,666.89c0,167.67-16.53,344.28-23.18,390.63-3.32,20.84-14.28,30.9-30.9,31.98-17.61,2.16-41.86,2.16-67.28,2.16-27.58,0-54.08-1.08-77.16-2.16-17.7-2.34-24.34-10.06-24.34-23.18,0-50.84,16.62-235,16.62-379.58,0-78.33-13.29-115.79-54.08-115.79-19.85,0-37.55,6.65-50.75,19.85-18.77,17.61-26.5,48.51-26.5,129.09,0,165.51,15.45,307.8,15.45,340.86,0,19.94-8.8,27.67-28.66,28.75-19.85,1.08-40.87,2.16-61.8,2.16-27.58,0-54.08-1.08-73.93-2.16-18.77-1.08-30.9-6.65-33.06-35.39-7.73-84.98-13.29-192.96-13.29-317.69,0-89.38,2.25-187.57,9.97-291.23,2.16-35.3,23.18-44.2,51.83-47.43,19.85-1.17,43.03-2.25,65.13-2.25,18.68,0,37.46,1.08,50.75,2.25,19.85,1.08,27.58,9.88,27.58,25.33s5.48,20.93,15.45,20.93c33.06,0,75.01-58.39,157.74-58.39,104.83,0,154.42,76.09,154.42,281.26Z"/>
        <path class="cls-2" d="M2376.77,880.91c0-159.94,125.76-223.9,269.22-244.92,34.14-5.48,50.75-13.21,50.75-33.06,0-34.23-18.77-56.23-71.77-56.23-57.31,0-114.71,24.25-166.55,70.61-6.65,6.56-13.29,9.88-18.77,9.88-4.4,0-9.88-2.16-14.37-6.65-20.93-19.85-40.78-55.16-40.78-100.34,0-78.33,95.94-139.06,253.77-139.06,185.32,0,250.45,92.71,250.45,257.09,0,67.28-5.57,173.15-5.57,254.89,0,63.96,8.8,136.72,8.8,154.33,0,18.86-8.8,30.9-27.58,34.32-35.3,7.73-156.66,8.8-229.43,8.8-168.79,0-258.17-62.88-258.17-209.66ZM2697.82,802.58c0-33.1-4.4-41.91-23.18-41.91-60.73,0-110.31,35.26-110.31,92.75,0,48.51,33.06,69.53,89.38,69.53,35.3,0,44.11-15.45,44.11-48.69v-71.68Z"/>
        <path class="cls-2" d="M2946.38,781.74c0-274.75,123.52-400.6,285.66-400.6,129.09,0,191.97,90.46,191.97,205.26,0,73.93-78.33,130.16-136.81,130.16-15.45,0-22.01-4.4-23.09-17.7-3.32-70.61-4.49-138.97-49.68-138.97-40.87,0-69.53,62.88-69.53,177.59,0,93.83,18.77,162.28,90.46,162.28s111.48-54.08,134.66-104.92c3.23-6.65,7.64-9.88,14.28-9.88,3.32,0,7.73,2.16,12.13,7.73,17.7,19.76,34.23,55.16,34.23,103.66,0,113.73-78.33,207.51-232.75,207.51-176.52,0-251.53-134.75-251.53-322.13Z"/>
        <path class="cls-2" d="M3702.31,1089.5c-25.33,2.16-56.23,2.16-87.14,2.16s-61.8,0-89.38-2.16c-12.13-1.08-28.66-6.65-30.9-31.98-6.65-90.55-7.73-196.37-7.73-306.73,0-179.84,8.8-375.13,29.82-535.12,3.32-23.18,17.61-27.58,29.73-28.66,23.18-1.08,48.6-2.25,75.01-2.25s53,1.17,77.25,2.25c15.45,1.08,26.5,7.73,26.5,22.1s-41.95,286.83-41.95,439.09c0,16.53,5.57,26.41,17.7,26.41,70.61,0,116.96-118.04,122.44-252.6,1.08-18.77,9.88-23.18,26.5-25.42,16.53-1.08,44.11-1.08,73.93-1.08,35.3,0,71.68,0,87.14,1.08,13.21,1.17,24.25,5.57,24.25,27.58,0,116.96-84.98,229.52-125.76,266.98-6.65,6.65-11.05,13.29-11.05,18.77s4.4,9.97,11.05,15.45c77.25,57.45,145.62,131.29,145.62,328.73,0,25.33-3.32,31.98-28.66,35.39-17.7,1.08-44.2,2.16-73.93,2.16-26.5,0-54.08,0-77.25-2.16-27.58-2.34-34.23-5.57-35.3-34.32-5.48-160.98-55.16-262.48-115.79-262.48-24.34,0-34.23,23.18-34.23,59.65,0,81.57,34.23,188.64,34.23,215.05,0,13.29-8.89,21.02-22.1,22.1Z"/>
        <path class="cls-2" d="M4329.24,1088.42c-20.93,1.08-46.26,2.16-75.01,2.16s-58.48,0-89.29-2.16c-15.45-1.26-26.5-11.14-30.9-29.82-13.29-56.23-22.1-173.19-22.1-315.53,0-191.97,8.8-279.1,18.77-315.57,4.4-17.61,12.13-24.25,20.93-27.58,13.29-3.32,49.68-6.56,83.9-6.56,18.68,0,36.38,0,49.59,3.23,12.13,2.25,15.45,9.97,16.53,23.18,1.17,13.29,6.65,17.7,12.22,17.7s10.96-3.32,18.68-8.8c22.1-19.94,45.27-38.63,69.53-38.63,19.85,0,33.06,25.33,33.06,112.47,0,40.87-2.16,79.5-8.8,99.35-5.48,18.68-14.28,23.18-24.25,23.18-13.21,0-30.9-9.97-51.83-9.97s-38.63,20.93-38.63,106.99c0,139.1,46.35,317.69,46.35,339.78,0,14.37-6.65,24.25-28.75,26.59Z"/>
        <path class="cls-2" d="M4726.65,1103.87c-198.62,0-264.73-152.35-264.73-337.63,0-272.55,138.97-383.94,304.44-383.94,111.48,0,198.62,59.56,198.62,183.07,0,188.64-157.74,210.74-254.85,253.73-34.23,12.22-48.6,22.1-48.6,40.96,0,31.98,23.18,57.31,76.18,57.31,76.09,0,145.62-33.06,188.64-89.47,6.65-5.39,11.05-8.8,16.53-8.8,15.45,0,27.58,28.75,27.58,80.67,0,127.92-113.64,204.09-243.8,204.09ZM4742.1,535.65c-60.73,0-102.59,66.21-102.59,142.29,0,11.05,3.32,19.85,13.21,19.85,6.65,0,14.37-2.16,21.02-5.48,44.11-26.5,119.12-54.08,119.12-107.08,0-28.66-18.77-49.59-50.75-49.59Z"/>
        <path class="cls-2" d="M5236.61,937.14c38.63,0,55.16-15.45,55.16-42.94s-19.85-46.35-80.49-75.1c-105.91-50.71-191.97-95.89-191.97-224.98s99.26-212.99,255.93-212.99c70.61,0,143.46,17.7,180.92,39.79,16.53,9.88,20.93,19.85,20.93,36.38,0,40.78-19.85,108.07-37.46,144.54-4.4,9.88-11.05,13.21-17.7,13.21-5.48,0-10.96-2.25-15.45-6.65-40.78-34.14-104.74-69.44-156.57-69.44-35.3,0-53,16.53-53,39.71,0,28.66,19.85,41.86,82.73,70.61,98.18,44.11,207.42,95.94,207.42,232.71,0,147.86-94.86,221.88-239.4,221.88s-239.4-70.61-239.4-184.33c0-45.27,11.05-79.41,20.93-94.86,4.4-6.65,9.97-10.96,16.62-10.96,5.48,0,10.96,2.16,14.28,8.8,31.98,55.16,99.26,114.62,176.52,114.62Z"/>
        <path class="cls-2" d="M5787.45,235.52c9.88,0,15.45,6.65,15.45,14.37,0,16.53-36.47,82.73-36.47,135.73,0,9.88,5.57,15.36,17.7,15.36,14.28,0,37.46-4.4,52.91-4.4,9.97,0,15.45,6.65,17.7,19.85,3.32,18.77,5.48,46.35,5.48,75.1s-2.16,59.56-7.73,87.14c-2.16,9.88-8.8,13.21-16.53,13.21-14.37,0-33.06-5.48-52.91-5.48-16.62,0-21.02,9.88-23.18,38.63-2.25,18.68-3.32,43.03-3.32,68.36,0,114.76,26.5,249.32,52.91,344.19,1.17,5.57,2.25,8.8,2.25,12.22,0,8.8-4.4,14.37-12.13,19.76-41.95,27.67-137.89,44.2-184.24,44.2-13.29,0-21.02-4.49-25.42-15.45-24.25-60.73-34.14-152.35-34.14-250.45,0-110.36,12.13-199.65,13.21-233.87,1.08-12.13-3.32-16.53-13.21-18.77-5.57-1.08-11.05-2.25-14.37-2.25-11.05-2.16-17.7-8.8-17.7-23.09,0-46.35,2.25-93.78,8.89-148.94,3.32-16.62,9.88-23.18,19.85-23.18h16.53c14.37,0,16.53-17.7,19.85-56.32,4.4-46.26,6.65-53.99,27.58-66.21,53-30.81,150.02-39.71,171.04-39.71Z"/>
        <path class="cls-2" d="M5885.82,747.47c0-218.47,93.78-366.33,280.18-366.33s263.65,141.21,263.65,366.33c0,250.4-121.27,356.4-279.1,356.4s-264.73-106-264.73-356.4ZM6235.53,732.02c0-126.84-28.66-186.49-77.25-186.49-51.83,0-79.41,59.65-79.41,186.49s22.1,180.87,78.33,180.87,78.33-57.31,78.33-180.87Z"/>
      </g>
      <g id="Layer_1-2" data-name="Layer 1-2">
        <g>
          <path d="M855.31,684.67s-.06.04-.08.05c.05-.01.07-.03.11-.05.01-.01.02-.01.03-.02-.02.01-.04.01-.06.02ZM851.73,686.41h0s.11-.03.15-.07c-.04.02-.1.05-.15.07ZM809.93,895.35c-.17.04-.33.07-.51.11-.05.01-.1.01-.15.04.05-.02.1-.02.15-.03.21-.04.41-.08.62-.13-.03,0-.07,0-.11.01ZM810.53,895.21c-.13.05-.25.08-.38.11.15-.02.31-.06.46-.12-.02.01-.05.01-.08.01ZM807.06,895.81h.09s.01-.01.01-.01c-.03,0-.07.01-.1.01ZM747.01,845.99s-.06-.09-.09-.14c-.11-.15-.22-.32-.33-.48.1.17.2.33.32.49.04.07.09.14.13.2-.01-.02-.02-.04-.03-.07ZM747.1,846.14h-.01c.02.05.06.08.1.13-.03-.05-.06-.1-.09-.13ZM747.53,846.83c.06.1.14.22.21.31h0c-.07-.09-.14-.2-.22-.31ZM773.64,925.22c-.49.11-.98.22-1.46.34-.04,0-.06,0-.09,0-.21.05-.43.1-.64.14-3.03.69-5.53,1.25-6.81,1.56-.88.16-1.76.32-2.66.49-.02,0-.04,0-.05.01-4.74.89-9.82,2.01-15.13,3.15-2.8.61-5.67,1.21-8.54,1.79,13.11-2.43,24.92-4.94,38.06-8.09-.91.21-1.81.42-2.68.6ZM704.1,936.84h-.03c-.19,0-.37-.02-.55-.02-.56,0-1.11-.02-1.65-.04-.49-.03-.99-.05-1.47-.09-.46-.02-.92-.06-1.37-.12-.02.01-.03.01-.04,0-2.76-.23-5.45-.64-8.03-1.25-.13-.03-.25-.06-.38-.09h0c1.43.38,2.8.78,4.23,1.09h0c1.54.37,3.14.61,4.71.74v.02c1.94.07,3.83-.12,5.83-.22.04-.01.09-.01.12-.01-.45,0-.92-.01-1.37-.01ZM678.24,933.53c-.11.01-.2.02-.31.03.22-.01.47-.03.68-.04-.12,0-.24,0-.37,0ZM594.86,943.72h-.09c-1.59.02-3.16.04-4.74.06-1.84.02-3.66.04-5.47.06-3.39.02-6.8.03-10.19.04,2,.03,4.02.06,6.02.09,6.41-.06,12.81-.13,19.32-.34-1.63.01-3.24.05-4.85.09ZM563.46,943.86v.02c.32-.01.63-.02.95-.02h-.95ZM472.84,923.58c.43-.85.89-1.68,1.35-2.49-.5.81-.94,1.64-1.35,2.49ZM467.49,729.15c-.12,2.37-.15,4.73-.12,7.1,0,.61.03,1.21.05,1.83,0,.1.01.18.01.28,0-3.1.11-6.16.06-9.21ZM424.76,767.46c-13.75,12.87-31.83,20.91-50.76,21.82,1.28-.04,2.55-.12,3.82-.23.12,0,.24-.03.36-.04,1.25-.11,2.51-.24,3.74-.42.66-.08,1.32-.18,1.98-.28,1.26-.22,2.52-.45,3.78-.74.84-.18,1.68-.38,2.51-.58,1.16-.29,2.29-.6,3.43-.95.83-.25,1.66-.52,2.48-.8.93-.31,1.84-.64,2.75-.99.85-.33,1.71-.67,2.58-1.04,1.16-.49,2.3-1.01,3.44-1.57,1.95-.95,3.88-1.98,5.76-3.1,1.08-.65,2.15-1.32,3.2-2.03,1.75-1.15,3.45-2.4,5.13-3.73,1.1-.87,2.21-1.78,3.27-2.73,1.08-.95,2.15-1.94,3.19-2.96,1.03-1.02,2.04-2.07,3.03-3.16,1.01-1.09,1.99-2.21,2.94-3.38-2.09,2.43-4.29,4.74-6.63,6.91ZM409.25,938.12s0,.03,0,.05h0s.01-.04.01-.05h-.01ZM378.5,849.75c.34.31.68.62,1.01.94h0c-.33-.33-.67-.64-1.01-.94ZM298.2,836.47c.7-.29,1.38-.63,2.08-.92-.71.27-1.38.6-2.08.92ZM317.51,768.32s-.04-.04-.06-.05c-.01-.01-.02-.02-.02-.02h0c-.07-.08-.15-.15-.22-.21-.07-.07-.13-.13-.2-.19-.05-.06-.12-.12-.17-.17-.01-.01-.04-.03-.05-.05-.07-.07-.14-.14-.23-.22-.08-.09-.18-.19-.27-.27-.18-.19-.37-.37-.55-.55h-.01c-1.72-1.73-3.37-3.56-4.95-5.44h.01c-1-1.16-1.91-2.35-2.87-3.54h0c-1.5-2.03-2.95-4.09-4.3-6.21h-.01c-.36-.54-.71-1.08-1.05-1.64-.19-.38-.44-.73-.67-1.1h.02c-.34-.59-.69-1.18-1.02-1.77h-.02c-.59-1.04-1.16-2.09-1.73-3.15h.01c-.11-.21-.22-.42-.32-.62h-.02c-1.38-2.69-2.63-5.42-3.76-8.21h-.02c-.45-1.14-.88-2.27-1.31-3.39h.01c-1.1-2.94-2.02-5.95-2.83-8.97h-.01c-.26-.96-.49-1.92-.72-2.88,1.97,8.91,4.92,16.98,8.65,24.23h0c.18.36.36.7.54,1.04.05.12.11.23.17.34.04.07.09.16.13.24.3.52.6,1.05.88,1.57,0,0,0,.01.01.01,5.04,8.94,11.33,16.48,18.45,22.62v-.02c-.48-.45-1-.91-1.49-1.38ZM289.36,715.84l-43.48-7.34s0,.06,0,.1l43.49,7.36s0-.09-.02-.12ZM393.79,681.94s-.07.04-.11.06c.05-.01.09-.02.12-.05.06-.02.12-.04.18-.07.21-.08.39-.15.58-.25.31-.13.62-.26.93-.38.1-.06.19-.1.28-.14-.67.23-1.32.53-1.98.83ZM591.98,476.36c-.29.61-.56,1.24-.88,1.84-.36.76-.74,1.5-1.11,2.26.65-1.2,1.23-2.4,1.79-3.62.35-.78.71-1.56,1.03-2.35-.28.62-.56,1.24-.83,1.87ZM588.56,449.84h.03v-.04s0,.03-.03.04ZM588.56,450.36c.01.31.01.62.01.94.02-.32.02-.63.02-.94v-.14s0,.09-.03.14ZM486.3,612.66s-.04-.01-.05-.02c-.63-.29-1.25-.54-1.83-.79.28.15.6.3.92.43.62.29,1.25.57,1.88.84.05.02.1.05.15.06.67.31,1.36.59,2.03.87-1.08-.48-2.11-.96-3.1-1.39ZM466.74,596.76c-.37.93-.09,1.96.37,2.81-.35-.88-.5-1.84-.37-2.81ZM498.99,643.86c-.13.3-.27.57-.39.85.31-.61.6-1.23.87-1.85-.15.33-.32.67-.48,1ZM498.27,645.31l-.02.06-.03.07c.03-.06.05-.09.06-.13.06-.09.11-.19.16-.29-.06.1-.11.2-.17.29ZM435,684.31l.03.04c.08.01.14.04.18.06-.07-.04-.13-.06-.21-.1ZM431.67,679.87c-.15-.42-.27-.85-.38-1.28-.1-.44-.19-.88-.25-1.32.19,1.75.75,3.47,1.75,4.94-.46-.74-.84-1.53-1.12-2.34ZM400.71,627.27c-3.31,1.06-6.54,2.21-9.75,3.49.83-.32,1.67-.61,2.52-.91.24-.08.48-.17.72-.25,1.08-.37,2.16-.74,3.23-1.12,1.11-.37,2.21-.74,3.31-1.11,1.44-.49,2.89-.98,4.33-1.47-1.45.46-2.9.91-4.36,1.37ZM379.6,674.4c.35.35.79.6,1.26.72.06,0,.12,0,.18-.01-.55-.11-1.03-.34-1.44-.71ZM381.04,675.11c1.35.31,3.11-.07,5.08-.91-1.62.55-3.31.87-5.08.91ZM386.12,674.2c.32-.11.66-.22.96-.34.02-.01.03-.01.05-.02,3.96-1.56,7.58-4.33,11.08-7.17.42-.35.84-.68,1.26-1.03-4.17,3.2-9.22,6.84-13.35,8.56ZM399.68,665.48c2.11-1.61,3.97-3.1,5.38-4.17-1.8,1.26-3.59,2.71-5.38,4.17ZM407,659.96c-.46.25-1.12.73-1.94,1.35.39-.28.79-.54,1.18-.79.16-.09.3-.2.44-.3h0c.13-.07.25-.15.34-.21h0s.01.01.01.01c.57-.34,1.14-.65,1.71-.95.68-.37,1.39-.74,2.08-1.08,1.27-.63,2.56-1.22,3.85-1.76.77-.33,1.55-.66,2.33-.96,1.24-.49,2.5-.96,3.78-1.39.22-.07.43-.15.65-.23.47-.15.92-.31,1.39-.46.66-.22,1.32-.43,1.97-.63.86-.26,1.73-.51,2.6-.78,2.62-.73,5.23-1.42,7.88-2.09,1.21-.31,2.43-.61,3.64-.91,1.42-.36,2.86-.72,4.29-1.08,1.36-.35,2.73-.7,4.1-1.07.02.01.04,0,.07-.01,1.38-.37,2.74-.73,4.1-1.14h.01c.14-.04.27-.1.43-.13.04,0,.08-.01.12-.04.04-.01.06-.02.08-.02.78-.23,1.56-.47,2.32-.71-15.73,4.74-33.14,7.1-47.43,15.38ZM378.34,671.05c0,.08.01.16.02.25.03.26.05.51.1.77.08.4.18.83.37,1.21.07.2.18.39.29.58v.02h0c.07.08.13.16.21.23-.58-1.04-.89-2.07-1-3.06ZM378.33,670.91v.09s0,.03.01.05c0-.04-.01-.1-.01-.14ZM745.24,891.1c-.01.08-.03.15-.04.23-.02.11-.04.22-.07.32.02-.03.03-.06.03-.08.05-.21.1-.4.12-.6.01-.04.02-.08.02-.11.03-.09.04-.16.06-.24.02-.12.04-.22.05-.33-.05.27-.11.54-.17.81ZM708.65,907.51s-.05-.02-.08-.03c.01.01.03.03.04.03.02,0,.03.01.04.01.05.02.1.03.14.04-.05-.02-.09-.03-.14-.05ZM746.54,642.36v.02-.02s0,0,0,0ZM733.49,514.95c-.14,1.24-.28,2.46-.45,3.69.27-1.64.42-3.28.6-4.93-.05.4-.09.82-.15,1.24ZM730.78,410.88c-.12-.43-.23-.85-.37-1.28-.17-.58-.34-1.14-.53-1.69-.23-.74-.48-1.44-.75-2.15l1.69,5.33c-.01-.07-.02-.14-.04-.21ZM664.05,557.85c-.73-.07-1.45-.14-2.18-.2-.73-.06-1.46-.12-2.19-.18-.74-.05-1.48-.09-2.21-.12-.74-.03-1.5-.05-2.23-.07,2.05.07,4.08.21,6.09.39,1.97.14,3.92.35,5.83.58-1.04-.15-2.07-.28-3.11-.4ZM641.31,376.99v.02c.15.13.29.26.43.38-.14-.13-.28-.26-.43-.4ZM587.4,571.5c-2.82,1.43-5.5,3.05-8.08,4.95.51-.32,1.01-.64,1.52-.96,4.65-2.88,9.63-5.4,14.83-7.58-2.86,1.06-5.61,2.25-8.27,3.59ZM587.1,499.97s-.03.01-.04.02c.07-.02.13-.04.21-.07-.05.01-.12.03-.17.05ZM298.2,836.47c.7-.29,1.38-.63,2.08-.92-.71.27-1.38.6-2.08.92ZM399.68,665.48c2.11-1.61,3.97-3.1,5.38-4.17-1.8,1.26-3.59,2.71-5.38,4.17ZM381.04,675.11c1.35.31,3.11-.07,5.08-.91-1.62.55-3.31.87-5.08.91ZM588.56,449.84h.03v-.04s0,.03-.03.04ZM588.56,450.36c.01.31.01.62.01.94.02-.32.02-.63.02-.94v-.14s0,.09-.03.14ZM486.3,612.66c.3.15.6.31.92.46.05.02.1.05.15.06.67.31,1.36.59,2.03.87-1.08-.48-2.11-.96-3.1-1.39ZM746.54,642.36v.02-.02s0,0,0,0ZM733.49,514.95c-.14,1.24-.28,2.46-.45,3.69.27-1.64.42-3.28.6-4.93-.05.4-.09.82-.15,1.24ZM730.78,410.88c-.12-.43-.23-.85-.37-1.28-.17-.58-.34-1.14-.53-1.69-.23-.74-.48-1.44-.75-2.15l1.69,5.33c-.01-.07-.02-.14-.04-.21ZM855.31,684.67s-.06.04-.08.05c.05-.01.07-.03.11-.05.01-.01.02-.01.03-.02-.02.01-.04.01-.06.02ZM851.73,686.41h0s.11-.03.15-.07c-.04.02-.1.05-.15.07ZM809.02,697.6v.02c.5-.13,1.01-.25,1.51-.37-.5.11-1.01.23-1.51.35ZM810.53,895.21c-.13.05-.25.08-.38.11.15-.02.31-.06.46-.12-.02.01-.05.01-.08.01ZM809.93,895.35c-.17.04-.33.07-.51.11-.05.01-.1.01-.15.04.05-.02.1-.02.15-.03.21-.04.41-.08.62-.13-.03,0-.07,0-.11.01ZM807.06,895.81h.09s.01-.01.01-.01c-.03,0-.07.01-.1.01ZM747.53,846.83c.06.1.14.22.21.31h0c-.07-.09-.14-.2-.22-.31ZM747.01,845.99s-.06-.09-.09-.14c-.11-.15-.22-.32-.33-.48.1.17.2.33.32.49.04.07.09.14.13.2-.01-.02-.02-.04-.03-.07ZM747.1,846.14h-.01c.02.05.06.08.1.13-.03-.05-.06-.1-.09-.13ZM746.54,642.36v.02-.02s0,0,0,0ZM773.64,925.22c-.49.11-.98.22-1.46.34-.04,0-.06,0-.09,0-.21.05-.43.1-.64.14-3.34.73-6.44,1.41-9.47,2.05-.02,0-.04,0-.05.01-4.74.89-9.82,2.01-15.13,3.15-2.8.61-5.67,1.21-8.54,1.79,13.11-2.43,24.92-4.94,38.06-8.09-.91.21-1.81.42-2.68.6ZM745.24,891.1c-.01.08-.03.15-.04.23-.02.11-.04.22-.07.32.02-.03.03-.06.03-.08.05-.21.1-.4.12-.6.01-.04.02-.08.02-.11.03-.09.04-.16.06-.24.02-.12.04-.22.05-.33-.05.27-.11.54-.17.81ZM733.49,514.95c-.14,1.24-.28,2.46-.45,3.69.27-1.64.42-3.28.6-4.93-.05.4-.09.82-.15,1.24ZM730.78,410.88c-.12-.43-.23-.85-.37-1.28-.17-.58-.34-1.14-.53-1.69-.23-.74-.48-1.44-.75-2.15l1.69,5.33c-.01-.07-.02-.14-.04-.21ZM708.65,907.51s-.05-.02-.08-.03c.01.01.03.03.04.03.02,0,.03.01.04.01.05.02.1.03.14.04-.05-.02-.09-.03-.14-.05ZM704.1,936.84h-.03c-.19,0-.37-.02-.55-.02-.56,0-1.11-.02-1.65-.04-.49-.03-.99-.05-1.47-.09-.46-.02-.92-.06-1.37-.12-.02.01-.03.01-.04,0-2.7-.25-5.37-.65-8.03-1.25-.13-.03-.25-.06-.38-.09h0c1.43.38,2.8.78,4.23,1.09h0c1.54.37,3.14.61,4.71.74v.02c1.94.07,3.83-.12,5.83-.22.04-.01.09-.01.12-.01-.45,0-.92-.01-1.37-.01ZM678.24,933.53c-.11.01-.2.02-.31.03.22-.01.47-.03.68-.04-.12,0-.24,0-.37,0ZM664.05,557.85c-.73-.07-1.45-.14-2.18-.2-.73-.06-1.46-.12-2.19-.18-.74-.05-1.48-.09-2.21-.12-.74-.03-1.5-.05-2.23-.07,2.05.07,4.08.21,6.09.39,1.97.14,3.92.35,5.83.58-1.04-.15-2.07-.28-3.11-.4ZM641.31,376.99v.02c.15.13.29.26.43.38-.14-.13-.28-.26-.43-.4ZM594.86,943.72h-.09c-1.59.02-3.16.04-4.74.06-1.84.02-3.66.04-5.47.06-3.39.02-6.8.03-10.19.04,2,.03,4.02.06,6.02.09,6.41-.06,12.81-.13,19.32-.34-1.63.01-3.24.05-4.85.09ZM591.98,476.36c-.29.61-.56,1.24-.88,1.84-.36.76-.74,1.5-1.11,2.26.65-1.2,1.23-2.4,1.79-3.62.35-.78.71-1.56,1.03-2.35-.28.62-.56,1.24-.83,1.87ZM587.4,571.5c-2.82,1.43-5.5,3.05-8.08,4.95.51-.32,1.01-.64,1.52-.96,4.65-2.88,9.63-5.4,14.83-7.58-2.86,1.06-5.61,2.25-8.27,3.59ZM588.56,449.84h.03v-.04s0,.03-.03.04ZM588.56,450.36c.01.31.01.62.01.94.02-.32.02-.63.02-.94v-.14s0,.09-.03.14ZM587.1,499.97s-.03.01-.04.02c.07-.02.13-.04.21-.07-.05.01-.12.03-.17.05ZM563.46,943.86v.02c.32-.01.63-.02.95-.02h-.95ZM498.99,643.86c-.13.3-.27.57-.39.85.31-.61.6-1.23.87-1.85-.15.33-.32.67-.48,1ZM498.27,645.31l-.02.06-.03.07c.03-.06.05-.09.06-.13.06-.09.11-.19.16-.29-.06.1-.11.2-.17.29ZM486.3,612.66s-.04-.01-.05-.02c-.63-.29-1.25-.54-1.83-.79.28.15.6.3.92.43.62.29,1.25.57,1.88.84.05.02.1.05.15.06.67.31,1.36.59,2.03.87-1.08-.48-2.11-.96-3.1-1.39ZM472.84,923.58c.43-.85.89-1.68,1.35-2.49-.5.81-.94,1.64-1.35,2.49ZM467.49,729.15c-.12,2.37-.15,4.73-.12,7.1,0,.61.03,1.21.05,1.83,0,.1.01.18.01.28,0-3.1.11-6.16.06-9.21ZM466.74,596.76c-.37.93-.09,1.96.37,2.81-.35-.88-.5-1.84-.37-2.81ZM435,684.31l.03.04c.08.01.14.04.18.06-.07-.04-.13-.06-.21-.1ZM431.67,679.87c-.15-.42-.27-.85-.38-1.28-.1-.44-.19-.88-.25-1.32.19,1.75.75,3.47,1.75,4.94-.46-.74-.84-1.53-1.12-2.34ZM409.25,938.12s0,.03,0,.05h0s.01-.04.01-.05h-.01ZM407,659.96c-.46.25-1.12.73-1.94,1.35-1.8,1.26-3.59,2.71-5.38,4.17-.06.05-.14.1-.21.16-4.17,3.2-9.22,6.84-13.35,8.56-1.62.55-3.31.87-5.08.91-.55-.11-1.03-.34-1.44-.71.35.35.79.6,1.26.72,1.62.43,3.25-.08,4.97-.71.4-.19.83-.36,1.25-.55.02-.01.03-.01.05-.02,3.96-1.56,7.58-4.33,11.08-7.17,1.53-1.14,3.02-2.31,4.5-3.45h0c1.05-.82,2.05-1.64,3.1-2.37v-.02c.15-.1.29-.2.43-.31.16-.09.3-.2.44-.3h0c.13-.07.25-.15.34-.21h0s.01.01.01.01c.57-.34,1.14-.65,1.71-.95.68-.37,1.39-.74,2.08-1.08,1.27-.63,2.56-1.22,3.85-1.76.77-.33,1.55-.66,2.33-.96,1.24-.49,2.5-.96,3.78-1.39.22-.07.43-.15.65-.23.47-.15.92-.29,1.39-.45h0c.66-.23,1.32-.44,1.97-.64.86-.26,1.73-.51,2.6-.78,2.62-.73,5.23-1.42,7.88-2.09,1.21-.31,2.43-.61,3.64-.91,1.42-.36,2.86-.72,4.29-1.08,1.36-.35,2.73-.7,4.1-1.07.02.01.04,0,.07-.01,1.38-.37,2.74-.73,4.1-1.14h.01c.14-.04.27-.1.43-.13.04,0,.08-.01.12-.04.04-.01.06-.02.08-.02.78-.23,1.56-.47,2.32-.71-15.73,4.74-33.14,7.1-47.43,15.38ZM393.79,681.94s-.07.04-.11.06c.05-.01.09-.02.12-.05.06-.02.12-.04.18-.07.21-.08.39-.15.58-.25.31-.13.62-.26.93-.38.1-.06.19-.1.28-.14-.67.23-1.32.53-1.98.83ZM400.71,627.27c-3.31,1.06-6.54,2.21-9.75,3.49.83-.32,1.67-.61,2.52-.91.24-.08.48-.17.72-.25,1.08-.37,2.16-.74,3.23-1.12,1.11-.37,2.21-.74,3.31-1.11,1.44-.49,2.89-.98,4.33-1.47-1.45.46-2.9.91-4.36,1.37ZM378.5,849.75c.34.31.68.62,1.01.94h0c-.33-.33-.67-.64-1.01-.94ZM378.34,671.05c0,.08.01.16.02.25.03.26.05.51.1.77.08.4.18.83.37,1.21.07.2.18.39.29.58v.02h0c.07.08.13.16.21.23-.58-1.04-.89-2.07-1-3.06ZM378.33,670.91v.09s0,.03.01.05c0-.04-.01-.1-.01-.14ZM424.76,767.46c-13.75,12.87-31.83,20.91-50.76,21.82,1.28-.04,2.55-.12,3.82-.23.12,0,.24-.03.36-.04,1.25-.11,2.51-.24,3.74-.42.66-.08,1.32-.18,1.98-.28,1.26-.22,2.52-.45,3.78-.74.84-.18,1.68-.38,2.51-.58,1.16-.29,2.29-.6,3.43-.95.83-.25,1.66-.52,2.48-.8.93-.31,1.84-.64,2.75-.99.85-.33,1.71-.67,2.58-1.04,1.16-.49,2.3-1.01,3.44-1.57,1.95-.95,3.88-1.98,5.76-3.1,1.08-.65,2.15-1.32,3.2-2.03,1.75-1.15,3.45-2.4,5.13-3.73,1.1-.87,2.21-1.78,3.27-2.73,1.08-.95,2.15-1.94,3.19-2.96,1.03-1.02,2.04-2.07,3.03-3.16,1.01-1.09,1.99-2.21,2.94-3.38-2.09,2.43-4.29,4.74-6.63,6.91ZM317.51,768.32s-.04-.04-.06-.05c-.01-.01-.02-.02-.02-.02h0c-.07-.08-.15-.15-.22-.21-.07-.07-.13-.13-.2-.19-.05-.06-.12-.12-.17-.17-.01-.01-.04-.03-.05-.05-.07-.07-.14-.14-.23-.22-.08-.09-.18-.19-.27-.27-.18-.19-.37-.37-.55-.55h-.01c-1.72-1.73-3.37-3.56-4.95-5.44h.01c-1-1.16-1.91-2.35-2.87-3.54h0c-1.5-2.03-2.95-4.09-4.3-6.21h-.01c-.36-.54-.71-1.08-1.05-1.64-.19-.38-.44-.73-.67-1.1h.02c-.34-.59-.69-1.18-1.02-1.77h-.02c-.59-1.04-1.16-2.09-1.73-3.15h.01c-.11-.21-.22-.42-.32-.62h-.02c-1.38-2.69-2.63-5.42-3.76-8.21h-.02c-.45-1.14-.88-2.27-1.31-3.39h.01c-1.1-2.94-2.02-5.95-2.83-8.97h-.01c-.26-.96-.49-1.92-.72-2.88,1.97,8.91,4.92,16.98,8.65,24.23h0c.18.36.36.7.54,1.04.05.12.11.23.17.34.04.07.09.16.13.24.3.52.6,1.05.88,1.57,0,0,0,.01.01.01,5.04,8.94,11.33,16.48,18.45,22.62v-.02c-.48-.45-1-.91-1.49-1.38ZM298.2,836.47c.7-.29,1.38-.63,2.08-.92-.71.27-1.38.6-2.08.92ZM289.36,715.84l-43.48-7.34s0,.06,0,.1l43.49,7.36s0-.09-.02-.12ZM472.84,923.58c.43-.85.89-1.68,1.35-2.49-.5.81-.94,1.64-1.35,2.49ZM678.24,933.53c-.11.01-.2.02-.31.03.22-.01.47-.03.68-.04-.12,0-.24,0-.37,0ZM730.78,410.88c-.12-.43-.23-.85-.37-1.28-.17-.58-.34-1.14-.53-1.69-.23-.74-.48-1.44-.75-2.15l1.69,5.33c-.01-.07-.02-.14-.04-.21ZM733.49,514.95c-.14,1.24-.28,2.46-.45,3.69.27-1.64.42-3.28.6-4.93-.05.4-.09.82-.15,1.24ZM579.32,576.45c.51-.32,1.01-.64,1.52-.96,2.13-1.43,4.31-2.78,6.56-3.99-2.82,1.43-5.5,3.05-8.08,4.95ZM587.1,499.97s-.03.01-.04.02c.07-.02.13-.04.21-.07-.05.01-.12.03-.17.05ZM730.78,410.88c-.12-.43-.23-.85-.37-1.28-.17-.58-.34-1.14-.53-1.69-.23-.74-.48-1.44-.75-2.15l1.69,5.33c-.01-.07-.02-.14-.04-.21ZM733.49,514.95c-.14,1.24-.28,2.46-.45,3.69.27-1.64.42-3.28.6-4.93-.05.4-.09.82-.15,1.24ZM746.54,642.36v.02-.02s0,0,0,0ZM745.13,891.65s.03-.06.03-.08c.01-.08.03-.16.04-.24-.02.11-.04.22-.07.32ZM745.24,891.1c.02-.05.03-.09.04-.13s.02-.08.02-.11c.03-.09.04-.16.06-.24.02-.12.04-.22.05-.33-.05.27-.11.54-.17.81ZM381.04,675.11c1.35.31,3.11-.07,5.08-.91-1.62.55-3.31.87-5.08.91ZM399.68,665.48c2.11-1.61,3.97-3.1,5.38-4.17-1.8,1.26-3.59,2.71-5.38,4.17ZM498.27,645.31h.01c.06-.09.11-.19.16-.29-.06.1-.11.2-.17.29ZM486.3,612.66c.3.15.6.31.92.46.05.02.1.05.15.06.67.31,1.36.59,2.03.87-1.08-.48-2.11-.96-3.1-1.39ZM588.56,450.36c.01.31.01.62.01.94.02-.32.02-.63.02-.94v-.14s0,.09-.03.14ZM588.56,449.84h.03v-.04s0,.03-.03.04ZM298.2,836.47c.7-.29,1.38-.63,2.08-.92-.71.27-1.38.6-2.08.92ZM317.51,768.32s-.04-.04-.06-.05c-.01-.01-.02-.02-.02-.02h0c-.07-.08-.15-.15-.22-.21-.07-.07-.13-.13-.2-.19-.05-.06-.12-.12-.17-.17-.01-.01-.04-.03-.05-.05-.07-.07-.14-.14-.23-.22-.08-.09-.18-.19-.27-.27-.18-.16-.38-.35-.56-.55-5.88-5.64-10.98-12.2-15.18-19.49,5.04,8.94,11.33,16.48,18.45,22.62v-.02c-.48-.45-1-.91-1.49-1.38ZM472.84,923.58c.43-.85.89-1.68,1.35-2.49-.5.81-.94,1.64-1.35,2.49ZM678.24,933.53c-.11.01-.2.02-.31.03.22-.01.47-.03.68-.04-.12,0-.24,0-.37,0ZM690.96,935.32c2.58.61,5.27,1.02,8.03,1.25-2.7-.25-5.37-.65-8.03-1.25ZM704.1,936.84c.4.02.84.02,1.25.02.04-.01.09-.01.12-.01-.45,0-.92-.01-1.37-.01ZM746.8,930.92c5.25-1.08,10.06-2.07,15.13-3.15-4.74.89-9.82,2.01-15.13,3.15ZM855.31,684.67h.03s.02-.01.03-.02c-.02.01-.04.01-.06.02ZM588.56,450.36c.01.31.01.62.01.94.02-.32.02-.63.02-.94v-.14s0,.09-.03.14ZM588.56,449.84h.03v-.04s0,.03-.03.04ZM378.33,670.91v.09s0,.03.01.05c0-.04-.01-.1-.01-.14ZM378.34,671.05c0,.08.01.16.02.25.03.26.05.51.1.77.08.4.18.83.37,1.21.07.2.18.39.29.58v.02h0c.07.08.13.16.21.23-.58-1.04-.89-2.07-1-3.06ZM407,659.96c-.46.25-1.12.73-1.94,1.35-1.41,1.07-3.27,2.56-5.38,4.17-.06.05-.14.1-.21.16-4.17,3.2-9.22,6.84-13.35,8.56-1.97.84-3.73,1.22-5.08.91-.55-.11-1.03-.34-1.44-.71.35.35.79.6,1.26.72,1.62.43,3.25-.08,4.97-.71.4-.19.83-.36,1.25-.55.02-.01.03-.01.05-.02.15-.07.3-.14.43-.22,3.76-1.9,7.27-4.37,10.65-6.95,1.53-1.14,3.02-2.31,4.5-3.45h0c1.05-.82,2.05-1.64,3.1-2.37v-.02c.15-.1.29-.2.43-.31.16-.09.3-.2.44-.3h0c.13-.07.25-.15.34-.21h0s.01.01.01.01c.57-.34,1.14-.65,1.71-.95.68-.37,1.39-.74,2.08-1.08,1.27-.63,2.56-1.22,3.85-1.76.77-.33,1.55-.66,2.33-.96,1.24-.49,2.5-.96,3.78-1.39.22-.07.43-.15.65-.23.47-.15.92-.29,1.39-.45h0c.66-.23,1.32-.44,1.97-.64.86-.26,1.73-.51,2.6-.78,2.61-.75,5.23-1.45,7.88-2.09,1.21-.31,2.43-.61,3.64-.91,1.42-.36,2.86-.72,4.29-1.08,1.36-.35,2.73-.7,4.1-1.07.02.01.04,0,.07-.01,1.38-.37,2.74-.73,4.1-1.14h.01c.14-.04.27-.1.43-.13.04,0,.08-.01.12-.04.04-.01.06-.02.08-.02.78-.23,1.56-.47,2.32-.71-15.73,4.74-33.14,7.1-47.43,15.38ZM400.71,627.27c-3.31,1.06-6.54,2.21-9.75,3.49.83-.32,1.67-.61,2.52-.91.24-.08.48-.17.72-.25,1.08-.37,2.16-.74,3.23-1.12,1.11-.37,2.21-.74,3.31-1.11,1.44-.49,2.89-.98,4.33-1.47-1.45.46-2.9.91-4.36,1.37ZM431.67,679.87c-.15-.42-.27-.85-.38-1.28-.1-.44-.19-.88-.25-1.32.19,1.75.75,3.47,1.75,4.94-.46-.74-.84-1.53-1.12-2.34ZM498.27,645.31l-.02.06-.03.07c.03-.06.05-.09.06-.13.06-.09.11-.19.16-.29-.06.1-.11.2-.17.29ZM708.65,907.51s-.05-.02-.08-.03c.01.01.03.03.04.03.02,0,.03.01.04.01.05.02.1.03.14.04-.05-.02-.09-.03-.14-.05ZM746.54,642.36v.02-.02s0,0,0,0ZM730.78,410.88c-.12-.43-.23-.85-.37-1.28-.17-.58-.34-1.14-.53-1.69-.23-.74-.48-1.44-.75-2.15l1.69,5.33c-.01-.07-.02-.14-.04-.21ZM809.02,697.6v.02c.5-.13,1.01-.25,1.51-.37-.5.11-1.01.23-1.51.35ZM643.76,996.06s0,0,.01.04v-.03h-.01ZM378.5,849.75c.34.31.68.62,1.01.94h0c-.33-.33-.67-.64-1.01-.94ZM678.24,933.53c-.11.01-.2.02-.31.03.22-.01.47-.03.68-.04-.12,0-.24,0-.37,0ZM704.1,936.84h-.03c-.19,0-.37-.02-.55-.02-.56,0-1.11-.02-1.65-.04-.49-.03-.99-.05-1.47-.09-.46-.02-.92-.06-1.37-.12-.02.01-.03.01-.04,0-2.76-.23-5.45-.64-8.03-1.25-.13-.03-.25-.06-.38-.09h0c1.43.38,2.8.78,4.23,1.09h0c1.54.37,3.14.61,4.71.74v.02c1.94.07,3.83-.12,5.83-.22.04-.01.09-.01.12-.01-.45,0-.92-.01-1.37-.01ZM773.64,925.22c-.49.11-.98.22-1.46.34-.04,0-.06,0-.09,0-.21.05-.43.1-.64.14-3.03.69-5.53,1.25-6.81,1.56-.88.16-1.76.32-2.66.49-.02,0-.04,0-.05.01-4.74.89-9.82,2.01-15.13,3.15-2.8.61-5.67,1.21-8.54,1.79,13.11-2.43,24.92-4.94,38.06-8.09-.91.21-1.81.42-2.68.6Z"/>
          <path d="M747.01,845.99s.02.05.03.07c.02.03.03.05.05.08h.01c-.02-.05-.06-.1-.09-.15ZM747.01,845.99s.02.05.03.07c.02.03.03.05.05.08h.01c-.02-.05-.06-.1-.09-.15Z"/>
          <path d="M813.08,98.33c-83.39,4.11-117.32-95.91-215.36-45.75-3.25-11.91,10.44-16.75,19.67-19.75,88.8-28.5,121.76,58.41,204.92,59.63,2.63.11,9.25-3.42,8.45,1.24-6.15,1.31-11.17,4.06-17.68,4.62Z"/>
          <path d="M670.16,307.45c-26.44-1.09-51.15-16.82-64.44-39.47-2.83-1.29-6.3-.37-9.15-1.72-.16-5.99,16.34-12.4,20.56-11.42-2.37,9.35-6.96,6.45.03,15.39,3.2,4.05,6.97,7.63,11.06,10.78.01,0,.01.01.01.01,2.65,1.99,5.46,3.79,8.36,5.42h0c26.64,15.4,60.38,12.44,81.64-9.89,1.8-.8,1.96,1.58,1.85,2.8-2.3,20.93-32.1,28.8-49.92,28.09Z"/>
          <path d="M690.25,228.39c.31.16.62.33.9.5h.02c26.64,15.97,3.6,54.35-22.82,39.13-3.72-2.57-9.33-6.83-7.45-11.95,1.79-2.9,7.09,1.84,9.91,3.26,7.57,3.74,20.8,2.73,22.22-7.44h0c.45-4.52-1.3-9.3-4.17-12.76h0c-.63-.69-1.34-1.3-2.09-1.83,0,0-.02,0-.02-.01-4.45-4.91-27.49-.32-15.09-11.19,5.91-2.96,13.12-.51,18.68,2.24l-.08.06Z"/>
          <path d="M691.15,208.19c.36-4.26,1.69-8.55,4.64-11.69h0c4.73-5.22,14.4-4.7,18.07,1.51h0c16.33,28.33-22.48,47.18-22.74,10.17h.03Z"/>
          <path d="M616.94,212.23c-.92-13.89,15.5-25.77,23.52-10.3h0c12.91,26.95-22.46,44.13-23.59,10.23l.07.07Z"/>
          <path d="M647.53,166.4c-15.37.34-27.17,7.02-40.68,14.14h0c1.81-23.13,27.15-33.16,42.26-14.27h0c-.53.02-1.05.08-1.58.11h0Z"/>
          <path d="M725.15,177.65c-20.8-14.76-40.69-5.84-27.48-17.67h.01c13.81-11.76,30.26,6.96,32.54,20.55-1.64-.94-3.37-1.96-5.07-2.92v.03Z"/>
          <path d="M556.79,266.85c-5.15,16.48-10.95-14.78-35.61-9.74h0c3.86-17.98,35.14-3.79,35.61,9.76v-.02Z"/>
        </g>
      </g>
      <path d="M665.85,1041.1c-26.12,6.33-47.16,27.6-57.28,52.86h153.52c-13.44-38.36-56.4-63.2-96.24-52.86ZM876.38,639.31c7.72-26.02-30.49-32.69-50.27-35.61-.29-.04-.58-.09-.86-.13-.28-.04-.56-.08-.83-.12-.18-.04-.36-.06-.54-.09-1.36-2.12,4.94-4.7,6.31-5.92h.01c1.1-.54,1.38-1.37,1.51-2.42-23.79-48.3-43.48-166.74-80.28-225.73v-.02c-9.88-15.85-21-27.42-33.78-32.17,12.08-6.66,24.52-15.89,33.34-27.32.29-.36.57-.73.84-1.1,7.03-9.49,11.54-20.44,11.35-32.67-.9-8.42,2.49-8.69,7.98-15.08,1.66-2.51,2.97-5.53,3.88-8.85,1.64-5.94,2.03-12.81.97-19.26-1.64-10.07-6.79-19.15-16.14-22.17,2.73-19.94,1.93-40.58-4.51-59.78,29.21.91,58.68-11.86,71.95-38.85-39.29,17.53-86.05,4.48-118.3-21.7-.93-.76-1.86-1.53-2.77-2.31,16.54,33.13,64.03,47.35,99.37,38.86-57.09,36.95-105.49-6.57-152.73-31.78-4.2-2.19-8.75-6.54-9.53.28-1.33,11.56.98,25.51.64,37.21l-35.97-37.69c-32.8,35.67-62.82,84.39-51.42,134.81-17.87-12.79-40.34-15.94-54.38,3.12-.35.46-.69.94-1.02,1.43-.15-.25-.3-.5-.45-.75-.13-.22-.25-.46-.38-.68-.02-.03-.03-.05-.05-.08-18.42-32.34-16.78-71.97-1.33-105.03,4.66-9.96,10.57-19.32,17.57-27.7l-13.66-9.16c3.58-.33,10.18-1.58,12.06-5.15,3.03-5.71-13.12-32.18-20.57-40.48-.67-.74-1.27-1.34-1.78-1.76.44.14.86.29,1.28.45,16.94,6.09,30.16,19.18,41.56,32.64,12.56-16.54,27.01-31.26,43.16-43.77,14.32-11.09,29.98-20.44,46.83-27.77,2.16-.95,4.34-1.85,6.54-2.72l-.58-2.29c-34.54,6.06-72.06,24.69-89.67,56.01-2.15.25-.88-2.3-.63-3.48,2.18-9.57,6.94-19.91,11.25-28.76,1.26-2.58,8.98-14.03,7.66-15.75-19.58,5.79-31.39,23.51-33.14,43.43-18.33-15.75-42.36-29.77-67.38-26.28,17.32,14.92,31.12,32,42.26,51.99-13.37-2.08-28.98.17-36.55,12.57,12.35,3.17,25.89,3.87,36.63,11.49-28.23,37.98-33.91,89.55-13.86,131.6,1.9,3.99,4.04,7.9,6.41,11.7-.05,2.53.03,5.05.26,7.56,2.93,33.76,29.75,63.45,66.57,53.66l18.22,19.39c-38.09.76-56.21,31.97-67.41,63.97.01,0-39.42,147.99-39.41,147.99-13.88-64.28-39.41-184.1-60.95-285.01-1.39-6.51-2.76-12.93-4.11-19.26-9.28-43.4-17.58-82.17-23.54-109.87-20.58-70.13-78.88-61.21-138.69-66.94C164.55,49.27,84.11,39.28,3.23,34.29c-2.04,14.59-1.42,29.29-1.83,43.99-.1,3.8-3.53,19.64.75,21l255.71,28.73c20.19,4.55,49.58-.91,56.88,24.23,4.16,18.75,10.3,47.05,17.54,80.58,1.34,6.25,2.73,12.68,4.15,19.26,24.25,112.63,57.89,270.3,71.66,333-37.61.12-209.79,5.86-221.36,41.97-1.38,6.84-1.3,43.78-.18,51.09,2.34,15.22,33.62,24.43,46.51,27.16,13.17,116.11,27.58,250.93,42.24,388.66h16.38c-.47-.25-.94-.51-1.39-.79-.02-.01-.08-.04-.13-.07h0c-.98-.61-1.91-1.32-2.76-2.12l-10.46-97.91h0c.06-.04.15-.04.23-.08l.04.05h0c41.13,46.32,121.21,15.1,129.69-43.41l59.35,3.39c3.9,65.4,90.77,68.7,98.41,2.47.03.01,81.72-3.47,81.76-3.47l2.61-.12c-10.53,12.08-11.53,29.82-5.27,44.16h.01c2.94,6.69,7.44,12.62,13.3,16.9.22.13.4.31.6.44,42.49,28.7,86.03-27.74,54.72-65.46-.01-.02-.02-.04-.02-.05-.23-.53-.36-1.12-.44-1.67,27.55-1.37,54.7-7.09,81.1-14.83-5.1,54.15-10.21,108.4-15.31,162.57h12.2c5.92-62.45,11.59-124.86,16.8-187.23,34.76-5.34,33.51-40.12,21.22-65.73-3.04-6.36-11.31-15.91-12.06-22.2l10.96-112.73c51.02-13.65,54-13.21,49.54-66.76ZM817.5,892.2h-.02c-.31.22-.63.42-.97.61-.15.13-.31.19-.49.29-.01,0-.01.01-.02.01-.84.49-1.73.89-2.64,1.25-.36.13-.73.26-1.1.38-.01,0-.04.03-.05.03-.04,0-.06.02-.1.03-.08.03-.18.04-.26.07,0,0-.01,0-.01.02h-.01c-.18.06-.35.1-.54.15-.06,0-.11.02-.17.04-.14.03-.29.07-.42.09-.03.01-.06.02-.09.03-.15.06-.31.1-.46.12-.04.01-.08.02-.11.02-.21.05-.41.09-.62.13-.05.01-.1.01-.15.03-.02,0-.04.01-.07.01h-.03c-.17.02-.34.06-.5.08-.07.01-.14.03-.2.04-.1.01-.19.02-.29.03-.33.06-.68.1-1.02.14,0,0,0,.01-.01.01h-.09c-.29.02-.59.05-.89.07-.03,0-.06,0-.08.01-2.03.13-4.09.05-6.11-.23l-.03.04c-5.86-.71-10.86-3.55-15.61-7.05h0s-.03-.05-.05-.05c-.44-.32-.91-.68-1.36-1.03,0,0,0,0-.01,0-.93-.75-1.83-1.47-2.74-2.26-.04-.03-.08-.06-.13-.11-.02,0-.05-.05-.07-.07h-.01c-.7-.57-1.36-1.15-2.02-1.77h-.01c-6.35-5.59-12.07-11.77-17.34-18.33,0,0-.01,0-.01-.02-4.63-5.74-8.86-11.72-12.84-17.86h0c-.07-.09-.15-.21-.21-.31-.07-.12-.14-.21-.2-.32,0-.01-.01-.04-.02-.05,0-.01-.02-.03-.03-.05-.03-.04-.06-.09-.09-.14-.04-.05-.08-.08-.1-.13-.02-.03-.03-.05-.05-.08-.04-.06-.09-.13-.13-.2-.12-.16-.22-.32-.32-.49.11.16.22.33.33.48-8.89-13.94-16.57-28.67-24.69-43.14h-.01c-2.58-4.59-5.22-9.13-7.97-13.63,1.42.11,2.73-.75,3.91-1.85.18-.17.32-.3.48-.49v-.02c.44-.43.81-.87,1.17-1.35.23-.2.35-.49.55-.7h0c.82-1.11,1.57-2.24,2.09-2.81,13.27,1.6,32.81,9.91,47.13,7.85,4.3.19,8.82-2.51,12.94-.65,13.62,23.19,39.19,50.14,43.02,76.2,1.33,9.39-.24,20.06-8.04,26.94ZM742.6,898.48c-6.08,10.38-19.99,12.99-30.93,9.94-.92-.25-1.83-.52-2.74-.82-.05-.01-.1-.02-.14-.04-.04-.01-.09-.02-.14-.04-.01,0-.02-.01-.04-.01-.01,0-.03-.02-.04-.03-.02,0-.04,0-.05-.01-.03,0-.05-.01-.07-.02-.16-.05-.34-.12-.49-.18-.14-.05-.27-.1-.41-.15-9.91-3.7-18.54-10.16-26.24-17.32h0c-.8-.76-1.61-1.53-2.39-2.32-.45-.45-.9-.89-1.34-1.34h-.01v-.02s-.04-.04-.06-.07c-.1-.08-.18-.19-.28-.29-1.33-1.36-2.63-2.76-3.89-4.2,0,0-.01,0-.01-.02h-.02c-.27-.34-.6-.65-.87-.99-1.66-1.91-3.32-3.88-4.86-5.9h0s0-.03-.01-.05c0-.01-.02-.02-.02-.03-.37-.48-.73-.95-1.1-1.43-.39-.5-.77-1.02-1.13-1.52-10-14.05-17.25-30.56-22.47-46.96,0,0-.02-.02-.03-.04-.03-.02-.06-.09-.08-.19-1.11-10.32-.11-30.77-.43-39.32,19.87,6.23,41.06,7.69,61.69,5.07,5.09,11.49,11.48,22.3,18.25,33.32h0s.03.04.03.06c12.14,19.95,24.28,40.28,23.48,64.3-.09.77-.18,1.56-.31,2.33-.02.03-.02.07-.03.1-.01.11-.03.21-.05.33-.02.08-.03.15-.06.24,0,.03-.01.07-.02.11-.02.2-.07.39-.12.6,0,.02-.01.05-.03.08,0,.04,0,.09-.02.13-.01.07-.03.13-.05.2-.54,2.26-1.35,4.45-2.55,6.47l.09.03ZM422.63,596.65c-.49-2.34-1-4.72-1.51-7.17-17.57-83.25-48.51-226.97-72.27-337.4-1.41-6.54-2.79-12.97-4.15-19.26-5.14-23.88-9.85-45.79-13.9-64.67-3.14-17.28-8.03-37.52-26.25-44.23-28.76-9.02-59.9-8.29-89.67-12.82-67.35-7.44-134.78-14.6-201.89-23.83-.27-12.23,1.43-27.58.99-40.39l254.17,22.85c80.82,2.8,102.4,22.1,114.88,102.89,4.32,20.06,8.62,40.12,12.89,60.2,1.37,6.42,2.74,12.84,4.1,19.26,21.77,102.45,43.22,205.06,66.24,307.17-4.33,10.95-4.8,30.04-13.97,38.68-.01,0-.03.01-.04.04h-.02c-18.75,8.46-43.48-.13-62.75,6.9-16.37,3.3-24.78,7.65-21.64,25.66-16.7,8.29-17.3,20.61-8.87,32.25-28.85-.53-57.9-3.4-86.49-8.56-10.28-2.58-80.08-13.98-72.43-27.14,14.3-11.83,38.74-13.15,56.64-17.14,11.95-2.14,23.98-3.88,36.06-5.31.9-.11,1.8-.2,2.71-.3,42.27-4.82,85.12-5.92,127.17-7.68ZM501.54,475.06c10.98-42.63,16.94-95.05,49.9-127.49h.01c1.49-1.3,3.06-2.46,4.65-3.56.52-.36,1.06-.7,1.58-1.03.63-.39,1.3-.77,1.95-1.13,3.92-2.04,8.11-4.1,12.56-4.33l-.05.1c35.29,16.43,36.12,77.27,28.77,110.33h-.01c-.46,2.09-.95,4.17-1.47,6.25-1.72,6.9-3.82,13.76-6.62,20.29-.32.79-.68,1.57-1.03,2.35-.56,1.22-1.14,2.42-1.79,3.62-.36.67-.73,1.35-1.1,2.02h0c-1.65,2-3.44,6.09-5.88,6.7-.06-.01-.09-.06-.13-.12,3.27-12.61,6.09-25.59,5.71-38.7,0,.31,0,.62-.02.94,0-.32,0-.63-.01-.94.03-.05.03-.1.03-.14v-.23c0-.05,0-.1-.03-.15.03,0,.03-.03.03-.04,0-.04,0-.06-.03-.1.03-.17,0-.35,0-.51l-1.71,1.12c-22.39,57.76-49.53,113.55-77.31,168.89-7.49.61-15.06-2.56-22.16-6.02-.05-.01-.1-.04-.15-.06-.63-.27-1.26-.55-1.88-.84-.32-.13-.64-.28-.92-.43.58.25,1.2.5,1.83.79-2.56-1.25-5.06-2.51-7.48-3.62-4.42-3.08-12.2-5.93-12.03-12.26-.13.97.02,1.93.37,2.81-.46-.85-.74-1.88-.37-2.81h-.01s.01-.01.01-.03c.52-1.71,1.05-3.41,1.58-5.13.02-.08.05-.18.07-.26.29-.9.55-1.81.84-2.71.28-.89.55-1.8.83-2.7,1.68-5.5,3.37-11.01,5-16.51,9.21-31.32,18.72-62.62,26.48-94.36ZM640.41,376.12c.06.06.24.24.32.29h0c.2.2.37.39.58.58.15.14.29.27.43.4l.44.39c2.17,1.96,4.56,3.73,7.07,5.22h.02c15.74,10.51,37.6.39,40.98-17.93h.01c.34-1.37.6-2.77.8-4.17.68-5.22.4-10.68-.8-15.78,17.47-3.66,15.93-5.34,31.59,6.16,2.48,1.92,4.79,4.07,6.97,6.33h0c.89.94,1.77,1.86,2.58,2.83.01,0,.02.01.02.03.88.99,1.73,2.01,2.57,3.06v.02c.63.77,1.25,1.55,1.85,2.36,0,.01.01.01.02.02h0s.01.02.01.04h0c2.63,3.52,5.1,7.12,7.34,10.9.01,0,.01.02.01.02,3.97,6.6,7.52,13.44,10.7,20.46h.02c26.88,64.12,40.8,130.46,64.06,194.98-.68.77-2.05,2.33-2.7,3.1-15.79-32.73-44.98-32.31-76.97-32.11-8.58-23.99-5.74-41.27-3.44-65.6.01-.02.01-.03,0-.04.14-30.49,2.8-62.34-5.77-91.92-3.61,52.91-2.5,106.32-11.54,158.73-10.34-2.04-21.54,5.81-31.02-1.25-6.18-2.4-12.68-4.02-19.34-4.98-.03,0-.06-.01-.07-.01-1.91-.23-3.86-.44-5.83-.58-2.01-.18-4.04-.32-6.09-.39.73.02,1.49.04,2.23.07-20.6-1.09-42.03,3.37-60.03,9.87-3.54,1.12-6.86,2.57-10.04,4.28,2.66-1.34,5.41-2.53,8.27-3.59-5.2,2.18-10.18,4.7-14.83,7.58-7.73,5.24-14.68,11.7-21.94,17.62v.02c-8.4,6.72-18.59,11.95-29.63,11.44,0,0,49.61-104.77,49.61-104.82,2.62.95,5.56,1.2,8.14.26.01-.01.03-.02.04-.02.01-.01.03-.01.04-.02.05-.02.12-.04.17-.05t.02-.01h.01s.02,0,.02-.01c.15-.06.31-.15.48-.22,35.64-36.7,37.49-127.44.89-165.91,0,0,0,0-.02-.02h0c10.96,5.73,22.13,11.28,34.18,14.27.75,1.36,1.48,2.74,2.17,4.14,4.4,8.4,8.73,17.2,15.39,23.96ZM634.24,349.68c15.57,1.76,31.4,1.6,46.85-1.15.11.91.2,1.83.23,2.75.27,5.51-.2,11.19-2.39,16.28-.52,1.2-1.18,2.33-1.93,3.39h0s-.02.01-.02.01c-.2.29-.42.58-.64.84,0,.02-.05.05-.05.08-6.11,7.34-16.77,6.4-24.17,1.35-2.56-1.68-4.84-3.8-6.58-6.17-.01,0-.01-.01-.01-.01h-.01c-1.04-1.31-2.15-2.62-3.1-4-.03-.01-.03-.03-.03-.03-.06-.1-.33-.43-.38-.55-.88-1.21-1.7-2.52-2.52-3.79-1.86-2.93-3.52-6.01-5.25-9ZM860.54,624.64s.02,0,.03.02c2.77,1.45,4.75,3.06,5.46,4.85.02,0,.02.04.02.05h.04c-1.08,8.52-33.34,14.17-41.62,17.5-3.64.97-8.93,2.51-10.77,2.05-.02-.01-.03-.01-.03-.01l-.02-.02s2.29-37.51,2.29-37.71c4.85,2.1,12.71,3.73,20.33,5.58,8.97,2.17,18.12,4.51,24.27,7.69ZM793.06,784.55c16.27-4.99,11.28-55.42,14.64-71.49.1-1.08.24-2.18.35-3.26l6.7-1.31-8.56,97.12h0v-.02c-3.95-6.34-9.41-15.09-13.12-21.04ZM722.22,658.86c.02-4.87,17.31-12.26,24.32-16.48v-.02h.01s.02-.01.04-.02c.01,0,.02-.02.03-.02l.06-.06c.27-.22.46-.5.61-.81h.02s.01-.06.01-.06h-.12c-.77-4.47-14.22,2.72-17.51,3.26-2.69.72-4.83,2.06-7.56,2.16.26-22.27,2.56-53.18-15.98-70.82,19.58-2.21,43.01-4.12,63.01-.68,15.87,1.79,32.77,10.48,35.18,26.69h.01c2.72,12.52.39,25.72-1.23,38.34-4.83,42.78-2.85,85.31-10.58,127.49v.03h-.01c-1.04,3.5-2.94,6.51-6.37,8.2-.06.02-.14.06-.21.12t-.03.01c-19.6,5.16-40.77,1.98-59.59-4.98-.81-.32-1.67-.63-2.48-.96-2.85-36.21-1.27-75.67-1.63-111.39ZM550.82,662.51h0c.35.15.68.29,1.02.39,23.61,7.97,48.97,1.22,73.28,3.33-.37.5-1.32,1.76-1.7,2.29-19.19.86-38.4,1.26-57.62,1.29-24.39.05-48.78-.49-73.17-1.32l-.04-.02c1.97-1.92,8.92-8.02,10.36-10.2h0s.01-.01.01-.01c6.83-8.97,8.28-20.7,13.41-30.58.78-1.56,1.87-3.15,3.6-3.75.36,7.79,3.14,14.8,7.5,20.94,0,0,0,.01.01.01,3.27,4.56,7.48,8.57,12.17,11.77h0c3.51,2.36,7.24,4.38,11.17,5.86ZM432.84,682.28s-.04-.05-.05-.07c-1-1.47-1.56-3.19-1.75-4.94-1.27-13.79,13.42-21.04,21.87-29.3,1.13-.93,2.39-1.51,1.97-3.45.01-.01,0-.06,0-.08-.14.06-.3.11-.44.14-.76.24-1.54.48-2.32.71-.02,0-.04,0-.08.02-.04.03-.08.04-.12.04-.16.03-.29.09-.43.13h-.01c-1.36.41-2.72.77-4.1,1.14-.03.01-.05.02-.07.01-1.37.38-2.74.73-4.1,1.07-1.43.36-2.87.72-4.29,1.08-1.21.3-2.43.6-3.64.91-2.65.67-5.26,1.36-7.88,2.09-.87.27-1.74.52-2.6.78-.65.2-1.31.41-1.97.63h0c-.47.17-.92.31-1.39.46-.22.08-.43.16-.65.23-1.28.43-2.54.9-3.78,1.39-.78.3-1.56.63-2.33.96-1.29.54-2.58,1.13-3.85,1.76-.69.34-1.4.71-2.08,1.08-.57.3-1.14.61-1.71.95h-.01c-.09.05-.21.13-.34.19h0c-.14.11-.28.22-.44.31-.14.11-.28.21-.43.31v.02c-1.05.73-2.05,1.55-3.1,2.36h0c-1.48,1.15-2.97,2.32-4.5,3.46-3.5,2.84-7.12,5.61-11.08,7.17-.02.01-.03.01-.05.02-.42.19-.85.36-1.25.55-1.72.63-3.35,1.14-4.97.71-.47-.12-.91-.37-1.26-.72-.1-.07-.18-.17-.25-.26,0-.01-.01-.01-.01-.03-.08-.07-.14-.15-.21-.23h0v-.02c-.11-.19-.22-.38-.29-.58-.19-.38-.29-.81-.37-1.21-.05-.26-.07-.51-.1-.77-.01-.09-.02-.17-.02-.25-.01-.02-.01-.04-.01-.05v-.09s.01.1.01.14c.11.99.42,2.02,1,3.06-6.84-18.12,40.2-34.11,51.93-37.81.65-.19,1.25-.46,1.89-.64,1.72-.63,3.32-1.49,3.41-2.59h.01v-.04h-16.55c-18.5,4.5-37.46,12.67-50.25,27.38-1.87-1.67-3.68-3.66-4.56-6.05-.04-.07-.08-.15-.09-.24-.43-1.06-.53-2.18-.45-3.26.19-2.36,1.37-4.52,2.9-6.31v-.02c6.52-6.65,14.56-10.5,23.01-13.64.12-.04.24-.08.37-.13,3.21-1.28,6.44-2.43,9.75-3.49,1.46-.46,2.91-.91,4.36-1.37,4.94-1.72,9.8-3.58,14.39-5.99-14.02-3.95-31.42,6.86-45.66,7.45-.04-.58-.1-1.12-.11-1.68l-.06-.02c.49-12.51,24.44-10.86,33.97-12.83,16.74-2.25,35.92,3.48,51.3-5.87,0-.01.02-.01.02-.01l15.39,11.83,29.68,11.51c-1.15,4.16-2.59,8.29-4.39,12.24-.02.07-.06.17-.09.24-.02.03-.03.05-.04.09-.27.62-.56,1.24-.87,1.85,0,0-.02,0-.02.02-.01.01-.02.02-.02.04-.04.09-.08.16-.12.25-.05.1-.1.2-.16.29-.01.04-.03.07-.06.13-.04.11-.1.21-.16.32-.02.03-.04.06-.05.09-2.84,5.55-6.43,10.73-10.82,15.15-6.92,7.83-17.19,9.44-26.58,12.59-6.9,2.23-20.96,16.79-27.77,8.69ZM435.21,684.41s-.1-.05-.18-.06l-.03-.04c.08.04.14.06.21.1ZM197.9,645.65l.09-.15c53.69,21.6,112.15,26.23,169.36,29.99,4.7,1.25,6.72,6.81,11.24,8.32,5.35,2,10.17.27,14.97-1.76.04-.02.09-.04.12-.05.04-.02.07-.05.11-.06.66-.3,1.31-.6,1.98-.83,2.1-.86,4.19-1.67,6.36-2.14,2.5-.32,14.6-2.07,19.65-1.36h.01c-.44,17.13,17.1,23.05,29.76,13.32,8.4-5.5,16.57-8.93,27.29-10.29,16.58-2.38,35.89-.89,54.3.38,32.03,2.92,60.15.8,91.4-2.28l1.74,37.72c-112.23,4.27-275.33,4.51-386.28-21.24-19.05-5.01-33.71-11-42.1-18.14v-31.43ZM623.48,656.62c-35.29-2.33-95.65,7.85-94.34-42,27.16,1.57,40.53-21.15,61.72-33.09,27.8-13.42,65.5-19.18,95.13-7.23,4.96,2.07,9.51,5.19,13.08,9.09,17.58,20.16,10.8,49.09,13.02,75.43.6,40.23.13,81.41.52,118.28-19.49,4.46-40.35,5.12-59.63-.71l-.02-.13c-4.28-1.34-8.45-3-12.44-5.03-1.72-27.69-6.75-108.32-8.56-137.15l-8.48,22.54ZM816.39,695.93h-.02c-1.45.3-2.89.61-4.34.96-.5.12-1.01.24-1.5.36-.5.12-1.01.24-1.51.37h0s-.01-.01-.02-.01l3.61-35.83c17.9-5.46,36.82-8.52,53.54-17.28v32.56c-.95.88-1.93,1.73-2.96,2.54-.06.05-.11.1-.17.15-.06.05-.12.09-.18.14-.03.01-.04.03-.06.04-.4.29-.79.59-1.2.87v.02c-.98.69-1.97,1.36-3,1.98v.02s-.03.01-.04.02c-.02,0-.02.01-.03.01-1.01.63-2.06,1.23-3.11,1.78-.01.01-.03.02-.03.02-.01.01-.02.01-.03.02-.04.02-.06.04-.11.05-1.06.55-2.11,1.07-3.19,1.55-.05.02-.11.05-.16.07-.04.04-.1.06-.15.08-8.03,3.58-16.65,5.61-25.23,7.41-3.26.71-6.57,1.36-9.84,2.05-.09.01-.18.04-.27.05ZM758.69,221.45h.01c.17-.27.36-.61.54-.81,0-.02.02-.03.02-.03,0-.01.01-.01.02-.01,1.58,1.43,2.94,3.09,3.97,4.91,1.25,2.32,2.12,4.78,2.64,7.31,1.32,6.33.49,13.12-1.67,19.26-.55,1.55-1.19,3.08-1.9,4.53h0s-.01.01-.01.02c-.02.02,0,.05-.03.06-.03.05-.05.1-.06.14-.16.38-.1.82-.21,1.2.01.03,0,.09-.02.1-.02.03-.04.06-.06.09-.02.02-.04.04-.07.05h-.02s-.01.01-.01.01h-.01v.02h-.01s-.05.03-.1.03h0c-.42.15-.88.11-1.32,0-.01.03-.02,0-.03,0-.15,0-.3-.04-.45-.06.27-2.23-.31-4.27-1.27-6.2-1.37-2.83-3.56-5.43-5.07-8.05l-.07.02c-1.02-1.62-2.06-3.23-1.18-5.12.41-1.26,1.12-3.54,1.97-6.11,1.32-4.01,2.98-8.73,4.4-11.37ZM540.72,232.82c4.54,1.99,9.17,5.31,13.67,10.21,2.58,2.84,5.41,6.22,9.45,6.22.4,0,.82-.04,1.25-.11,1.71-.29,5.7-3.58,5.93-5.11-1.25-3.66-2.26-7.4-3.03-11.21-8.64-42.41,11.42-92.68,41.62-121.9,13.04,16.47,27.62,32.14,46.34,42.22l-3.41-44.55c28.99,16.48,56.63,38.6,91.22,41.28,10.31,26.53,8.97,56.24-.01,82.95-1,2.99-2.09,5.94-3.28,8.84,2.54,3.52,4.67,7,6.38,10.42,38.08,75.72-117.72,125.26-175.12,50.86-2.46-3.18-4.73-6.58-6.8-10.22-20.13,8.75-41.16,1.99-52.61-16.71-1.16-1.85-2.14-3.68-2.96-5.52-.12-.26-.23-.52-.34-.78-2.6-6.2-3.29-12.23-2.5-17.63,1.25-8.71,6.32-15.78,13.35-19.26,5.93-2.95,13.25-3.34,20.85,0ZM777.95,924.24c-.2.05-.4.08-.61.14-.33.09-.68.17-1.02.24-13.14,3.15-24.95,5.66-38.06,8.09,2.87-.58,5.74-1.18,8.54-1.79-3.75.76-7.72,1.58-12.12,2.51-9.66,1.81-19.58,3.48-29.33,3.43-2,.1-3.89.29-5.83.22v-.02c-1.57-.13-3.17-.37-4.71-.73h0c-1.43-.32-2.8-.72-4.23-1.09h0c-8.56-3.04-16.4-1.87-24.11,1.67t-.02.01s-.09.01-.11.04c-.02,0-.04.01-.05.02t-.02.01c-14.21,6.41-30.7,4.63-46.16,6.01-6.66.28-13.34.48-20.03.62-.12.01-.25.01-.37.01-6.51.21-12.91.28-19.32.34-2-.03-4.02-.06-6.02-.09-3.32,0-6.64-.01-9.96-.02-.32,0-.63.01-.95.02v-.02c.84-40.51-48.92-61.09-78.3-35.78h-.01c-9.85,8.04-16.2,20.75-17.68,33.48-11.3-.68-46.23-2.75-58.21-3.44,0,.01-.01.03-.01.05h0s0-.04,0-.05h-.02c5.88-31.36-6.32-65.48-29.4-87.16h-.02c-.08-.1-.19-.2-.3-.27-.33-.32-.67-.63-1.01-.94-1.19-1.07-2.4-2.08-3.64-3.1h-.01s-.02-.02-.03-.02c-.02-.02-.06-.04-.09-.06h0s0,0-.01,0c0-.01-.01-.01-.01-.01-2.49-1.97-5.11-3.82-7.8-5.52h-.02c-31.27-19.97-75.08-11.31-97.15,18.3-2.07,2.46-3.95,5.06-5.77,7.71h0c-.01.06-.07.13-.12.16-.08.13-.2.21-.34.25l-16.93-158.47-.66-.19c-.01-.06-.01-.13-.03-.19,0-.04,0-.07,0-.1l43.48,7.34s.01.08.02.12c1.74,10.04,4.97,19.44,9.44,27.94-3.73-7.25-6.68-15.32-8.65-24.23.23.96.46,1.92.72,2.88h.01c.81,3.02,1.73,6.03,2.83,8.97h-.01c.43,1.12.86,2.25,1.31,3.39h.02c1.13,2.79,2.38,5.52,3.76,8.21h.02c.1.2.21.41.32.62h-.01c.57,1.06,1.14,2.11,1.73,3.15h.02c.33.59.68,1.18,1.02,1.77h-.02c.23.37.48.72.67,1.1.34.56.69,1.1,1.05,1.64h.01c1.35,2.12,2.8,4.18,4.3,6.2h0c.96,1.2,1.87,2.39,2.87,3.55h-.01c1.58,1.88,3.23,3.71,4.95,5.44h.01c.18.18.37.36.55.55.09.08.19.18.27.27.09.08.16.15.23.22.01.02.04.04.05.05.05.05.12.11.17.17.07.06.13.12.2.19.07.06.15.13.22.2h0s0,.01.02.03c.02,0,.04.03.06.05,15.09,13.73,34.8,21.69,56.31,20.97t.03,0s.1,0,.15-.01c18.93-.91,37.01-8.95,50.76-21.82,2.34-2.17,4.54-4.48,6.63-6.91t.02-.03c.06-.06.11-.13.16-.19h.01c.1-.13.18-.25.29-.36h0c6.74-8.33,12.45-18.77,16.36-30.66l19.26-.16c.05,3.05-.06,6.11-.06,9.21,1.4,37.92,22.76,74.96,54.41,95.43.01.04.02.05.03.04.58.36,1.17.73,1.74,1.09,3.02,1.89,6.15,3.62,9.34,5.19,18.29,8.98,39.82,12.28,59.68,6.97,12.98-1.95,29.91-14.82,40.47-22h.01s.02-.01.02-.01c1.3,7.62,3.65,15.42,6.88,23.02,9.25,22.07,25.73,43.61,44.27,58.24,30.51,25.8,77.64,14.18,71.09-30.97.16-.05.33-.12.47-.13.07-.04.16-.04.24-.06t.02,0c.33-.04.7-.09,1,.06.01,0,.02,0,.02.01.06.02.12.05.15.1.01,0,.02.01.03.03.16.1.22.28.25.42.03,0,.02.03.02.04.01,0,.02.02.01.03.07.14.09.27.12.42.03.05.05.11.06.16,10.78,11.36,21.79,24.37,37.44,28.74.13,3.37.49,6.97-.12,10.31-.56,7.14-7.44,5.67-17.13,8.75Z"/>
      <circle cx="511.65" cy="950.07" r="58.43"/>
      <circle cx="681.56" cy="973.11" r="49.57"/>
    </g>
  </g>
</svg>